:FULLY-SPECIFIED
:FORCE-ALL-JOINTS-BE-3DOF
:DEGREES
270
root 3.88352 17.1145 22.6514 -1.04393 10.9096 2.14932
lfemur -12.159 -2.9507 -23.8561
ltibia 31.0623 0 0
lfoot -9.94966 -1.70904 0.142676
ltoes -4.12133 0 0
rfemur -11.8541 4.0972 20.1218
rtibia 48.8986 0 0
rfoot 12.2612 -5.69992 0.269982
rtoes 6.54942 0 0
lowerback 6.63888 1.00789 -2.69165
upperback 0.608709 1.19683 1.65679
thorax -3.07935 0.64456 3.10711
lowerneck -14.5783 -2.88941 -8.66538
upperneck 23.7566 -2.84199 4.15247
head 10.1766 -1.58297 2.56218
lclavicle 5.40445e-15 9.54155e-16 1.03084e-30
lhumerus -31.5442 12.7494 81.0845
lradius 23.5317 0 0
lwrist -15.4252 0 0
lhand -13.7347 21.5754 -0.0607353
lfingers 7.12502 0 0
lthumb 12.3833 51.1556 -0.0644191
rclavicle 5.40445e-15 9.54155e-16 1.03084e-30
rhumerus -37.89 -17.8808 -72.81
rradius 32.8651 0 0
rwrist 4.82753 0 0
rhand -15.6514 11.2625 -0.0104171
rfingers 7.12502 0 0
rthumb 10.5359 -18.4411 -0.00770075
271
root 3.94445 17.128 22.7994 0.0213969 11.2419 3.50993
lfemur -11.7603 -3.31392 -25.6763
ltibia 31.2166 0 0
lfoot -10.0129 -1.4891 0.12699
ltoes -3.61095 0 0
rfemur -13.7566 2.76016 18.1987
rtibia 51.189 0 0
rfoot 10.0978 -6.11383 0.17606
rtoes 6.07388 0 0
lowerback 6.40301 0.854645 -3.70997
upperback 0.386011 0.907725 1.17988
thorax -3.1944 0.514153 3.21203
lowerneck -14.7749 -2.9962 -8.86386
upperneck 24.1789 -2.93658 4.19394
head 10.3811 -1.64316 2.6026
lclavicle 7.80975e-15 -8.7863e-15 -9.87629e-31
lhumerus -31.2486 12.2686 81.3368
lradius 23.6406 0 0
lwrist -14.6242 0 0
lhand -14.2485 22.0674 -0.0366658
lfingers 7.12502 0 0
lthumb 11.8877 51.6726 -0.0416279
rclavicle 7.80975e-15 -8.7863e-15 -9.87629e-31
rhumerus -38.0891 -19.0201 -72.1023
rradius 31.6195 0 0
rwrist 7.2315 0 0
rhand -14.8105 11.0512 -0.00269793
rfingers 7.12502 0 0
rthumb 11.3471 -18.6125 -0.000766245
272
root 4.00251 17.1426 22.9677 0.558786 11.5578 4.57029
lfemur -10.8854 -3.6984 -26.9703
ltibia 31.1705 0 0
lfoot -10.0256 -1.80444 0.0972649
ltoes 0.152055 0 0
rfemur -15.2762 1.0255 16.9666
rtibia 53.2291 0 0
rfoot 8.20522 -5.83659 0.0508833
rtoes 4.19183 0 0
lowerback 6.20992 0.718472 -4.50451
upperback 0.341355 0.665699 0.819464
thorax -3.13826 0.401731 3.31082
lowerneck -14.7499 -3.02326 -9.14356
upperneck 24.3315 -2.9782 4.46854
head 10.4446 -1.65736 2.74569
lclavicle -6.80216e-14 3.29983e-15 -3.01884e-31
lhumerus -30.9566 11.6923 81.5938
lradius 23.9525 0 0
lwrist -13.8099 0 0
lhand -15.1516 23.5936 0.0247324
lfingers 7.12502 0 0
lthumb 11.0162 53.2326 0.0160711
rclavicle -6.80216e-14 3.29983e-15 -3.01884e-31
rhumerus -38.5953 -14.1889 -75.1034
rradius 33.0056 0 0
rwrist 2.79217 0 0
rhand -14.9919 9.16976 -0.0486281
rfingers 7.12502 0 0
rthumb 11.1722 -20.507 -0.0457701
273
root 4.04532 17.1645 23.15 0.548732 11.5924 4.83238
lfemur -9.92773 -3.89555 -27.2477
ltibia 31.1794 0 0
lfoot -10.0133 -2.216 0.0408343
ltoes 2.51684 0 0
rfemur -16.51 0.44167 16.768
rtibia 54.8165 0 0
rfoot 7.06662 -6.50555 -0.024721
rtoes 4.51092 0 0
lowerback 6.23284 0.634821 -4.81302
upperback 0.294484 0.530415 0.824642
thorax -3.18903 0.341426 3.50763
lowerneck -14.3984 -2.80333 -9.36674
upperneck 24.1788 -2.67182 4.57823
head 10.3017 -1.52595 2.8635
lclavicle 1.44412e-13 2.94201e-15 1.71575e-30
lhumerus -30.7925 11.9116 81.6451
lradius 24.1314 0 0
lwrist -13.7996 0 0
lhand -15.9437 23.7515 0.0515988
lfingers 7.12502 0 0
lthumb 10.252 53.4217 0.0416486
rclavicle 1.44412e-13 2.94201e-15 1.71575e-30
rhumerus -38.6953 -14.6533 -74.767
rradius 31.8542 0 0
rwrist 4.34435 0 0
rhand -15.3753 9.59427 -0.0485297
rfingers 7.12502 0 0
rthumb 10.8025 -20.1034 -0.0459645
274
root 4.09066 17.1772 23.3277 0.610401 11.6772 4.65473
lfemur -9.55083 -3.56582 -27.1041
ltibia 31.4989 0 0
lfoot -9.54365 -2.64897 -0.0137537
ltoes -0.475136 0 0
rfemur -17.6777 0.616556 16.891
rtibia 55.9099 0 0
rfoot 6.23494 -7.88638 -0.0232012
rtoes 6.1839 0 0
lowerback 6.07586 0.497533 -4.64747
upperback 0.197029 0.367185 0.923074
thorax -3.175 0.261008 3.54432
lowerneck -14.5639 -2.72851 -9.2996
upperneck 24.4426 -2.51637 4.36324
head 10.4135 -1.48002 2.79911
lclavicle 1.31943e-14 -5.00938e-15 -7.72313e-31
lhumerus -30.5645 12.9435 81.2701
lradius 24.0413 0 0
lwrist -14.7844 0 0
lhand -15.9465 22.1248 -0.0095221
lfingers 7.12502 0 0
lthumb 10.2495 51.7999 -0.0167454
rclavicle 1.31943e-14 -5.00938e-15 -7.72313e-31
rhumerus -39.0362 -15.1808 -74.51
rradius 31.1276 0 0
rwrist 6.08012 0 0
rhand -15.3898 10.4509 -0.0492047
rfingers 7.12502 0 0
rthumb 10.7886 -19.2472 -0.0465549
275
root 4.14643 17.185 23.5041 0.80069 11.936 4.26551
lfemur -9.41181 -3.25658 -26.7201
ltibia 32.101 0 0
lfoot -9.3207 -3.00533 -0.104987
ltoes -4.60984 0 0
rfemur -18.8537 0.566872 17.1955
rtibia 56.7063 0 0
rfoot 5.28869 -9.2324 -0.0158195
rtoes 6.12448 0 0
lowerback 5.68975 0.306035 -4.15656
upperback 0.152113 0.16535 1.04016
thorax -2.98959 0.151291 3.42457
lowerneck -15.0898 -2.9811 -9.17108
upperneck 24.9934 -2.7678 3.99132
head 10.7352 -1.63295 2.61357
lclavicle 1.36192e-14 -7.87189e-15 1.07288e-30
lhumerus -30.2945 13.0957 81.3395
lradius 24.3507 0 0
lwrist -14.9442 0 0
lhand -15.7185 21.8915 -0.0362593
lfingers 7.12502 0 0
lthumb 10.47 51.5676 -0.0412266
rclavicle 1.36192e-14 -7.87189e-15 1.07288e-30
rhumerus -38.9783 -18.1161 -72.7566
rradius 28.9769 0 0
rwrist 10.4868 0 0
rhand -15.0498 11.85 -0.0284011
rfingers 7.12502 0 0
rthumb 11.1165 -17.8323 -0.0267648
276
root 4.19011 17.2087 23.6791 0.834294 12.1399 3.91729
lfemur -9.09017 -3.07186 -26.3289
ltibia 32.8201 0 0
lfoot -8.54401 -4.11727 -0.220669
ltoes -2.09698 0 0
rfemur -19.9821 0.317785 17.5967
rtibia 57.3304 0 0
rfoot 4.79219 -9.5909 -0.0249952
rtoes 2.89347 0 0
lowerback 5.5325 0.149831 -3.79502
upperback 0.125125 -0.0090655 1.18956
thorax -2.92172 0.0593344 3.39706
lowerneck -14.3316 -2.61546 -9.23946
upperneck 24.6631 -2.3312 4.08273
head 10.4325 -1.43038 2.71644
lclavicle 9.03154e-14 -1.12115e-14 -1.55176e-30
lhumerus -30.218 12.1637 81.9507
lradius 25.1585 0 0
lwrist -13.8879 0 0
lhand -15.5178 22.7412 -0.02311
lfingers 7.12502 0 0
lthumb 10.6641 52.422 -0.02665
rclavicle 9.03154e-14 -1.12115e-14 -1.55176e-30
rhumerus -39.2075 -19.6841 -71.7095
rradius 27.8621 0 0
rwrist 13.286 0 0
rhand -14.5885 12.1739 -0.0159672
rfingers 7.12502 0 0
rthumb 11.5615 -17.4853 -0.0150243
277
root 4.22098 17.2256 23.8521 0.713041 12.3713 3.8152
lfemur -8.76663 -2.85876 -26.2292
ltibia 33.6158 0 0
lfoot -7.58397 -4.72373 -0.354516
ltoes -0.409252 0 0
rfemur -20.9586 -0.157001 17.8158
rtibia 57.7652 0 0
rfoot 4.11039 -9.19429 -0.0241925
rtoes 1.17907 0 0
lowerback 5.68548 0.0253472 -3.79612
upperback 0.038323 -0.179915 1.27505
thorax -3.07875 -0.0199875 3.50048
lowerneck -14.1733 -2.51487 -9.2442
upperneck 24.8367 -2.1658 3.93424
head 10.452 -1.37742 2.68902
lclavicle 7.21838e-14 2.3059e-15 -3.19028e-30
lhumerus -30.2485 11.5724 82.2686
lradius 25.78 0 0
lwrist -13.1776 0 0
lhand -15.4914 22.553 -0.0323508
lfingers 7.12502 0 0
lthumb 10.6895 52.2327 -0.0355625
rclavicle 7.21838e-14 2.3059e-15 -3.19028e-30
rhumerus -39.5045 -20.0168 -71.422
rradius 27.1368 0 0
rwrist 14.4301 0 0
rhand -14.5514 12.2772 -0.0165263
rfingers 7.12502 0 0
rthumb 11.5972 -17.3789 -0.0153474
278
root 4.25282 17.2161 24.0245 0.690133 12.6076 4.12508
lfemur -8.58655 -2.74202 -26.6171
ltibia 34.3702 0 0
lfoot -6.64855 -4.63596 -0.521354
ltoes -1.16214 0 0
rfemur -21.9769 -0.755524 17.576
rtibia 58.2004 0 0
rfoot 3.06226 -8.58734 0.00262873
rtoes 1.67245 0 0
lowerback 5.74686 -0.0981314 -4.23377
upperback 0.037784 -0.377035 1.22695
thorax -3.09857 -0.111426 3.71142
lowerneck -14.4389 -2.53276 -8.99941
upperneck 25.0275 -2.15009 3.6391
head 10.5667 -1.38448 2.54521
lclavicle 7.65074e-15 -1.08536e-14 9.43991e-31
lhumerus -29.9713 11.6059 82.2915
lradius 26.0172 0 0
lwrist -13.1223 0 0
lhand -15.4972 22.3948 -0.0427237
lfingers 7.12502 0 0
lthumb 10.6841 52.0766 -0.0453077
rclavicle 7.65074e-15 -1.08536e-14 9.43991e-31
rhumerus -39.5604 -20.1857 -71.4108
rradius 26.2812 0 0
rwrist 14.9735 0 0
rhand -15.1092 12.434 -0.0193858
rfingers 7.12502 0 0
rthumb 11.0592 -17.2504 -0.0178897
279
root 4.2902 17.2198 24.2024 0.813318 12.7264 3.9838
lfemur -8.3544 -2.60201 -26.544
ltibia 35.0422 0 0
lfoot -5.68095 -4.55564 -0.678122
ltoes -1.29087 0 0
rfemur -22.9892 -0.899261 17.8549
rtibia 58.5659 0 0
rfoot 1.96652 -8.32821 0.0344129
rtoes 2.61243 0 0
lowerback 5.73214 -0.210691 -4.15954
upperback 0.0461036 -0.516877 1.28901
thorax -3.08377 -0.184476 3.74518
lowerneck -14.3494 -2.42276 -8.94592
upperneck 24.8517 -2.01458 3.62989
head 10.4734 -1.31567 2.54871
lclavicle 5.09684e-14 -7.23575e-15 3.91331e-31
lhumerus -29.6243 11.8906 82.2696
lradius 26.1197 0 0
lwrist -13.251 0 0
lhand -15.5105 21.9786 -0.0478426
lfingers 7.12502 0 0
lthumb 10.6714 51.666 -0.0495145
rclavicle 5.09684e-14 -7.23575e-15 3.91331e-31
rhumerus -39.6853 -20.4309 -71.329
rradius 25.6452 0 0
rwrist 15.2822 0 0
rhand -15.195 12.6216 -0.0178349
rfingers 7.12502 0 0
rthumb 10.9764 -17.0662 -0.0162068
